2.5Hzhigh3min_grf.mot
version=1
nRows=22
nColumns 19
inDegrees=yes
endheader
time	1_ground_force_vx	1_ground_force_vy	1_ground_force_vz	1_ground_force_px	1_ground_force_py	1_ground_force_pz	1_ground_torque_x	1_ground_torque_y	1_ground_torque_z	2_ground_force_vx	2_ground_force_vy	2_ground_force_vz	2_ground_force_px	2_ground_force_py	2_ground_force_pz	2_ground_torque_x	2_ground_torque_y	2_ground_torque_z
            1.253500	            0.415931	            2.877646	            1.570444	           -0.233013	            0.005581	           -0.255695	           -0.256267	            0.130007	           -0.075307	            0.702693	           -0.175753	           -1.643440	           -0.232311	            0.006130	           -0.833667	           -0.150137	           -0.047604	           -0.056655
            1.254000	            0.277884	            1.977471	            1.291785	           -0.233013	            0.005581	           -0.255695	           -0.281791	            0.111925	           -0.193942	            0.564905	           -0.913691	           -1.411367	           -0.232311	            0.006130	           -0.833667	           -0.187530	           -0.085887	            0.037477
            1.254500	            0.323565	            1.617341	            1.198414	           -0.233013	            0.005581	           -0.255695	           -0.221223	            0.047090	           -0.154806	            0.754340	           -1.465794	           -1.319562	           -0.232311	            0.006130	           -0.833667	           -0.168820	           -0.076030	           -0.056749
            1.255000	            0.552684	            0.896716	            1.103041	           -0.233013	            0.005581	           -0.255695	           -0.310438	           -0.027176	           -0.051114	            0.514609	            0.007886	           -1.689631	           -0.232311	            0.006130	           -0.833667	           -0.263028	           -0.000681	           -0.075289
            1.255500	            0.461076	            2.338234	            1.247020	           -0.233013	            0.005581	           -0.255695	           -0.373497	           -0.101253	           -0.036437	            0.561520	            0.007553	           -1.548866	           -0.232311	            0.006130	           -0.833667	           -0.131743	            0.056578	           -0.093993
            1.256000	            0.415413	            1.977497	            1.291444	           -0.233013	            0.005581	           -0.255695	           -0.281563	           -0.036228	           -0.113521	            0.141824	           -0.546080	           -1.644515	           -0.232311	            0.006130	           -0.833667	           -0.113189	            0.122747	           -0.074914
            1.256500	            0.598850	            1.617001	            1.289443	           -0.233013	            0.005581	           -0.255695	           -0.243501	            0.037327	            0.007320	            0.467820	            0.007215	           -1.548827	           -0.232311	            0.006130	           -0.833667	           -0.206758	            0.027746	           -0.037511
            1.257000	            0.232496	            1.976675	            1.475323	           -0.233013	            0.005581	           -0.255695	           -0.289386	            0.120750	           -0.101849	            0.464600	            0.927120	           -1.310901	           -0.232311	            0.006130	           -0.833667	           -0.131129	           -0.113571	           -0.094600
            1.257500	            0.415281	            2.698560	            1.294536	           -0.233013	            0.005581	           -0.255695	           -0.338333	            0.167035	           -0.093736	            0.843325	           -0.175915	           -1.455787	           -0.232311	            0.006130	           -0.833667	           -0.149840	           -0.114244	            0.075060
            1.258000	            0.185563	            2.338967	            1.064279	           -0.233013	            0.005581	           -0.255695	           -0.328187	            0.046518	           -0.047645	            0.514067	            0.191030	           -1.407405	           -0.232311	            0.006130	           -0.833667	           -0.206391	           -0.076166	           -0.056733
            1.258500	            0.414990	            1.798018	            1.107248	           -0.233013	            0.005581	           -0.255695	           -0.311024	           -0.073456	           -0.057207	            0.422862	           -0.544562	           -1.785418	           -0.232311	            0.006130	           -0.833667	           -0.225527	            0.027544	            0.000197
            1.259000	            0.139102	            1.979607	            0.787712	           -0.233013	            0.005581	           -0.255695	           -0.353743	           -0.119900	           -0.050236	            0.558923	            0.743644	           -1.405454	           -0.232311	            0.006130	           -0.833667	           -0.187938	            0.018362	           -0.037553
            1.259500	            0.369015	            2.519072	            1.110453	           -0.233013	            0.005581	           -0.255695	           -0.292726	           -0.036500	           -0.059074	            0.327853	           -0.176772	           -1.737136	           -0.232311	            0.006130	           -0.833667	           -0.169197	            0.046317	            0.094492
            1.260000	            0.232026	            1.436861	            1.243724	           -0.233013	            0.005581	           -0.255695	           -0.260379	            0.028152	           -0.064703	            0.562849	           -0.360744	           -1.550181	           -0.232311	            0.006130	           -0.833667	           -0.225491	            0.008908	           -0.075271
            1.260500	            0.186183	            1.436852	            1.243838	           -0.233013	            0.005581	           -0.255695	           -0.391909	            0.176161	           -0.103293	            0.747611	            0.376359	           -1.500704	           -0.232311	            0.006130	           -0.833667	           -0.206493	           -0.047808	           -0.056631
            1.261000	            0.232364	            2.697738	            1.478415	           -0.233013	            0.005581	           -0.255695	           -0.290077	            0.093423	           -0.195981	            0.843387	           -0.176417	           -1.315003	           -0.232311	            0.006130	           -0.833667	           -0.131173	           -0.094867	           -0.037982
            1.261500	            0.368887	            1.978668	            1.016422	           -0.233013	            0.005581	           -0.255695	           -0.232262	            0.056104	           -0.096404	            0.611049	           -0.729038	           -1.504587	           -0.232311	            0.006130	           -0.833667	           -0.169075	           -0.009727	           -0.094213
            1.262000	            0.277671	            2.518464	            1.248248	           -0.233013	            0.005581	           -0.255695	           -0.411184	           -0.055127	           -0.043971	            0.513300	            0.376015	           -1.641389	           -0.232311	            0.006130	           -0.833667	           -0.131726	            0.047259	           -0.131727
            1.262500	            0.368902	            2.519268	            1.064597	           -0.233013	            0.005581	           -0.255695	           -0.290721	           -0.055068	           -0.040361	            0.327956	           -0.177608	           -1.502496	           -0.232311	            0.006130	           -0.833667	           -0.150691	            0.103706	           -0.074966
            1.263000	            0.277410	            2.699123	            1.157310	           -0.233013	            0.005581	           -0.255695	           -0.200942	           -0.064253	           -0.063337	            0.514629	            0.007719	           -1.642703	           -0.232311	            0.006130	           -0.833667	           -0.263268	            0.074672	            0.000382
            1.263500	            0.415203	            1.257024	            1.150785	           -0.233013	            0.005581	           -0.255695	           -0.350154	            0.065109	           -0.037698	            0.469150	           -0.361082	           -1.550141	           -0.232311	            0.006130	           -0.833667	           -0.206544	           -0.038221	           -0.094298
            1.264000	            0.369243	            2.518679	            1.202165	           -0.233013	            0.005581	           -0.255695	           -0.352985	            0.139117	           -0.058172	            0.513985	            0.191700	           -1.595118	           -0.232311	            0.006130	           -0.833667	           -0.187690	           -0.057058	           -0.094373
